# xmcd
#
# Track frame offsets:
#	150
#	17116
#	33521
#	49552
#	67884
#	88997
#	106156
#	122448
#	144684
#	161785
#	180786
#	198510
#	218001
#	233238
#	255331
#	272849
#	290780
#	308507
#	328040
#	340032
#
# Disc length: 4789 seconds
#
# Revision: 0
# Processed by: cddbd v1.5.2PL0 Copyright (c) Steve Scherf et al.
# Submitted via: FairStars CD Ripper 2.00
#
DISCID=1912b314
DTITLE=var - The Dad's Album CD 2
DYEAR=2017
DGENRE=Acid Punk
TTITLE0=Tina Turner - What's love gotta do with it
TTITLE1=Run-DMC feat. Aerosmith - Walk this way
TTITLE2=Lenny Kravitz - Are you going my way
TTITLE3=Daryll Hall and John Oates - Out of touch
TTITLE4=Paul Simon - You can call me Al
TTITLE5=Survivor - Eye of tiger
TTITLE6=Kenny Loggins - Danger zone
TTITLE7=Roxy Music - Jealous guy
TTITLE8=Cyndi Lauper - True Colors
TTITLE9=Lou Reed - Walk on the wild side
TTITLE10=Cars - Drive
TTITLE11=Poison - Every rose has its thorn
TTITLE12=Patti Smith - Because the night
TTITLE13=Jennifer Rush - The power of love
TTITLE14=Guess Who - American woman
TTITLE15=Bruce Hornsby and The Range - The way it is
TTITLE16=Huey Lewis and The News - The power of love
TTITLE17=Peter Cetera - Glory of love
TTITLE18=Harry Nilsson - Everybody's talkin'
TTITLE19=Jeff Buckley - Hellelujah
EXTD=
EXTT0=
EXTT1=
EXTT2=
EXTT3=
EXTT4=
EXTT5=
EXTT6=
EXTT7=
EXTT8=
EXTT9=
EXTT10=
EXTT11=
EXTT12=
EXTT13=
EXTT14=
EXTT15=
EXTT16=
EXTT17=
EXTT18=
EXTT19=
PLAYORDER=
